<svg width="16" height="16" viewBox="0 0 16 16" fill="none" xmlns="http://www.w3.org/2000/svg">
<path d="M11.3608 1.81466C11.4514 1.75581 11.5371 1.70042 11.6222 1.64401C11.8746 1.47668 12.1433 1.45711 12.4152 1.57518C12.7581 1.72408 13.0948 1.88776 13.4346 2.04406C13.7444 2.18657 14.0552 2.32692 14.3648 2.46998C14.467 2.51723 14.573 2.56033 14.6665 2.62212C14.8691 2.75587 14.9723 2.95511 14.9837 3.19909C14.9941 3.41957 14.9981 3.6405 14.999 3.86126C15.0011 4.33082 14.9993 4.8004 14.9991 5.26997C14.9983 7.59197 14.9979 9.91397 14.9957 12.236C14.9956 12.3558 14.9859 12.4764 14.97 12.5951C14.939 12.8263 14.8212 13.0024 14.6182 13.1117C14.3952 13.2317 14.1691 13.3457 13.9437 13.461C13.3459 13.7668 12.7477 14.0717 12.1498 14.3772C11.9774 14.4652 11.7988 14.5195 11.6026 14.4934C11.4722 14.4761 11.3524 14.4328 11.245 14.355C10.5357 13.8419 9.8264 13.3289 9.1173 12.8155C8.97415 12.7119 8.8307 12.6087 8.68935 12.5025C8.55868 12.4044 8.45497 12.284 8.40557 12.122C8.33473 11.8897 8.37433 11.6764 8.52988 11.4947C8.65957 11.3432 8.80171 11.2026 8.94072 11.0595C9.31531 10.6741 9.69062 10.2893 10.0667 9.90534C10.4001 9.5649 10.7354 9.22634 11.069 8.88613C11.486 8.46095 11.9023 8.03513 12.3184 7.6091C12.4074 7.51801 12.4984 7.42847 12.5815 7.33193C12.7986 7.07947 12.8867 6.78155 12.8678 6.44855C12.8564 6.24961 12.8057 6.06169 12.702 5.89268C12.4818 5.53405 12.163 5.33548 11.7483 5.30489C11.3824 5.2779 11.0677 5.40409 10.8044 5.6595C10.5977 5.86001 10.3977 6.06779 10.1956 6.27318C9.90214 6.57138 9.60939 6.87032 9.31639 7.16899C9.07189 7.41821 8.82779 7.66783 8.58293 7.91667C8.38669 8.1161 8.18903 8.3141 7.993 8.51374C7.83773 8.67187 7.68423 8.83181 7.52936 8.99036C7.48486 9.03592 7.44024 9.0817 7.39238 9.12346C7.2324 9.26309 7.01559 9.25888 6.86679 9.14675C6.66282 8.99304 6.63983 8.69962 6.81722 8.51276C6.94119 8.38218 7.07002 8.25638 7.19682 8.1286C7.44272 7.88082 7.68928 7.63372 7.93452 7.38526C8.14277 7.17428 8.34958 6.96183 8.55696 6.74996C8.82633 6.47476 9.09552 6.19937 9.36501 5.92428C9.61514 5.66897 9.86583 5.41422 10.1157 5.15862C10.1815 5.09128 10.2479 5.02414 10.3093 4.95272C10.4785 4.75587 10.5588 4.52017 10.5786 4.2636C10.6002 3.98491 10.5433 3.7214 10.3854 3.49009C10.1376 3.12703 9.78973 2.95546 9.35801 2.9648C9.03268 2.97183 8.75697 3.10206 8.5277 3.33571C8.03472 3.83809 7.54247 4.34123 7.04926 4.84337C6.52109 5.38111 5.99193 5.91785 5.46374 6.45556C5.35532 6.56593 5.23314 6.64029 5.07419 6.64805C4.91109 6.65602 4.78355 6.588 4.66636 6.48187C4.50233 6.3333 4.33492 6.1886 4.16911 6.04206C4.1484 6.02376 4.12738 6.00554 4.10871 5.98518C4.05339 5.92485 4.02744 5.85541 4.04022 5.77084C4.05315 5.68524 4.06628 5.59897 4.06931 5.51263C4.08379 5.09973 3.94016 4.75631 3.6173 4.50181C3.39287 4.32489 3.13805 4.2333 2.84937 4.26352C2.83891 4.26461 2.82859 4.26768 2.8184 4.27057C2.81661 4.27108 2.81583 4.27527 2.81192 4.28311C2.8519 4.31738 2.89513 4.35042 2.93371 4.38838C3.0086 4.46205 3.08905 4.53196 3.15272 4.61496C3.35597 4.87989 3.37034 5.28973 3.19357 5.5612C2.98791 5.87703 2.64635 6.01946 2.30295 5.93362C2.18292 5.90362 2.0794 5.84263 1.98593 5.7625C1.92086 5.70671 1.85762 5.64873 1.79305 5.59234C1.77094 5.57303 1.74727 5.55559 1.71594 5.53064C1.71919 5.80246 1.79838 6.03073 1.95886 6.2305C2.06273 6.3598 2.18273 6.46778 2.32862 6.54566C2.59525 6.68798 2.87391 6.72934 3.16472 6.6433C3.26137 6.61471 3.35461 6.57241 3.44683 6.53048C3.55351 6.48197 3.65408 6.47729 3.74655 6.55816C4.0964 6.86414 4.44448 7.17223 4.79509 7.4773C5.07184 7.7181 5.17011 8.30839 4.81302 8.66021C4.57233 8.89735 4.33331 9.13627 4.09366 9.37452C4.08987 9.37828 4.08759 9.38361 4.07884 9.39709C4.20802 9.53185 4.33866 9.66814 4.47305 9.80833C4.55441 9.72798 4.63065 9.65203 4.70759 9.57683C4.84223 9.44521 4.97663 9.31332 5.1127 9.18325C5.14378 9.15353 5.15261 9.12581 5.14628 9.08091C5.09329 8.70507 5.13321 8.34035 5.2742 7.98689C5.37959 7.72271 5.54322 7.50123 5.73855 7.30148C6.11246 6.91911 6.48664 6.537 6.8614 6.1555C7.10993 5.90251 7.36059 5.65171 7.60864 5.39825C7.94968 5.04978 8.28875 4.69932 8.62947 4.35053C8.79403 4.18208 8.95744 4.01225 9.12706 3.84921C9.24363 3.73716 9.38529 3.70527 9.53923 3.76007C9.69954 3.81714 9.78904 3.93771 9.81459 4.1055C9.83617 4.24726 9.7929 4.36991 9.69225 4.47173C9.23059 4.93877 8.769 5.40589 8.3081 5.87371C7.93278 6.25466 7.55833 6.6365 7.18375 7.01821C6.87516 7.33267 6.56248 7.64314 6.25976 7.96339C5.92617 8.31631 5.84987 8.74064 6.01329 9.18992C6.21508 9.7447 6.75636 10.0344 7.27146 9.97972C7.46042 9.95969 7.6403 9.90926 7.79885 9.80565C7.91091 9.73241 8.01445 9.64176 8.10961 9.54627C8.3677 9.28725 8.6187 9.02091 8.87363 8.7586C9.12664 8.49828 9.38101 8.23933 9.6348 7.97979C10.0997 7.50432 10.5643 7.02855 11.0298 6.55363C11.1384 6.44283 11.249 6.33404 11.3603 6.22603C11.4179 6.17005 11.4796 6.11936 11.5569 6.09157C11.7956 6.00578 11.9959 6.16197 12.064 6.31889C12.139 6.49174 12.1074 6.64783 11.9885 6.78548C11.9197 6.86506 11.8409 6.93561 11.767 7.01062C11.1118 7.67599 10.4564 8.34125 9.80146 9.00696C9.44973 9.36448 9.10063 9.72471 8.74651 10.0797C8.6236 10.203 8.49611 10.3237 8.35849 10.4289C8.09037 10.634 7.78432 10.7492 7.45178 10.7969C7.06388 10.8525 6.69059 10.8017 6.33359 10.6425C5.94933 10.4712 5.64184 10.204 5.41515 9.84255C5.40926 9.83315 5.40364 9.82358 5.39762 9.81428C5.39616 9.81203 5.39358 9.81053 5.38245 9.80057C5.22878 9.9483 5.0742 10.0969 4.91709 10.2479C4.92944 10.2641 4.93863 10.2773 4.94897 10.2895C5.07432 10.4373 5.06882 10.6281 4.93145 10.7637C4.75408 10.9389 4.57415 11.1114 4.39578 11.2855C4.21346 11.4635 4.03157 11.6419 3.84972 11.8204C3.61848 12.0473 3.39383 12.2818 3.15499 12.5001C2.70059 12.9154 2.04234 12.9882 1.52406 12.6042C1.0126 12.2252 0.834352 11.5097 1.17481 10.9037C1.26925 10.7356 1.3987 10.6003 1.53244 10.4678C1.99482 10.0096 2.4583 9.5525 2.92193 9.09561C3.00077 9.01791 3.0792 8.93919 3.16357 8.86804C3.26382 8.78349 3.38015 8.75746 3.50139 8.81594C3.55173 8.84023 3.5931 8.88384 3.64594 8.92433C3.69567 8.87584 3.75027 8.82247 3.805 8.76925C3.98173 8.59744 4.15839 8.42555 4.33534 8.25397C4.40919 8.18236 4.43754 8.09712 4.41215 7.99523C4.39715 7.93499 4.35597 7.89388 4.31176 7.85549C4.17392 7.73577 4.036 7.61615 3.89768 7.497C3.7573 7.37608 3.61516 7.25722 3.47657 7.13421C3.43907 7.10092 3.40644 7.09407 3.3591 7.10782C2.77157 7.27854 2.24445 7.14873 1.783 6.75319C1.47975 6.49325 1.30859 6.14988 1.24995 5.75018C1.21374 5.50341 1.2278 5.25921 1.29842 5.01971C1.31173 4.97459 1.32877 4.92908 1.35259 4.889C1.41879 4.77764 1.54491 4.7505 1.65219 4.82213C1.68184 4.84193 1.70864 4.86652 1.73518 4.8907C1.91524 5.05473 2.09819 5.21566 2.27361 5.3847C2.42159 5.52729 2.62169 5.50319 2.75612 5.35582C2.87929 5.2208 2.87458 4.98978 2.7346 4.86441C2.54498 4.69457 2.35665 4.52326 2.16778 4.35256C2.15546 4.34142 2.14263 4.33078 2.1311 4.31884C2.01878 4.20253 2.04497 4.02749 2.18634 3.95148C2.40872 3.83192 2.64616 3.76774 2.89716 3.76581C3.42853 3.76171 3.85711 3.97961 4.19402 4.39565C4.40577 4.65715 4.51193 4.95954 4.54382 5.29263C4.55101 5.36769 4.55171 5.44337 4.55768 5.51858C4.55932 5.53936 4.56292 5.56673 4.57628 5.57869C4.66272 5.65606 4.75167 5.73055 4.84099 5.80449C4.85511 5.81618 4.87527 5.82029 4.901 5.83158C4.98016 5.75623 5.06212 5.6823 5.13959 5.60377C5.44898 5.29015 5.75706 4.9752 6.06545 4.66057C6.45138 4.26685 6.83666 3.87247 7.22314 3.47931C7.47172 3.22643 7.71959 2.97274 7.97262 2.72454C8.06906 2.62996 8.173 2.54054 8.28401 2.46472C8.55311 2.28091 8.8524 2.18266 9.17577 2.14832C9.4477 2.11945 9.7124 2.14172 9.97368 2.21733C10.1247 2.26103 10.266 2.32925 10.4025 2.40791C10.419 2.41742 10.4355 2.42695 10.4562 2.43885C10.7563 2.23161 11.056 2.02463 11.3608 1.81466ZM14.1881 6.33973C14.1886 5.39414 14.189 4.44855 14.1893 3.50296C14.1893 3.47784 14.1889 3.45242 14.1853 3.42765C14.1716 3.3334 14.1303 3.25911 14.0396 3.21981C13.9917 3.19904 13.9456 3.17409 13.8982 3.15223C13.5334 2.98421 13.1685 2.81646 12.8036 2.64866C12.6086 2.55902 12.4132 2.47042 12.2189 2.37941C12.1298 2.33769 12.0453 2.33336 11.9617 2.39218C11.9302 2.41436 11.8952 2.43147 11.8635 2.45339C11.6092 2.62906 11.3553 2.80524 11.1015 2.98165C11.0863 2.99217 11.0734 3.00602 11.0572 3.02034C11.0945 3.08318 11.1323 3.14131 11.1647 3.20246C11.3626 3.57605 11.4233 3.97656 11.3876 4.39575C11.3852 4.42434 11.3873 4.45333 11.3873 4.48648C11.4257 4.48343 11.453 4.48257 11.48 4.4789C11.6586 4.45459 11.8372 4.46319 12.013 4.49561C12.3796 4.56323 12.7028 4.72348 12.9847 4.97514C13.3196 5.27408 13.5458 5.63657 13.6398 6.08183C13.7787 6.73956 13.64 7.33038 13.2191 7.84815C13.111 7.98122 12.9857 8.10002 12.8665 8.22357C12.7261 8.36912 12.5848 8.51388 12.4415 8.65652C12.3895 8.70832 12.3661 8.76297 12.3665 8.84009C12.37 9.42757 12.3688 10.0151 12.3687 10.6026C12.3686 10.8823 12.3683 11.1621 12.3673 11.4418C12.3668 11.5799 12.307 11.6872 12.1876 11.7495C12.0671 11.8124 11.9438 11.807 11.8293 11.7258C11.7392 11.662 11.6499 11.5971 11.5599 11.533C11.2293 11.2977 10.8986 11.0624 10.5677 10.8275C10.5186 10.7927 10.468 10.7602 10.4178 10.7265C10.4055 10.7377 10.3971 10.7446 10.3894 10.7524C10.0535 11.0942 9.71746 11.4359 9.38197 11.7781C9.36076 11.7998 9.34187 11.8243 9.32483 11.8495C9.29455 11.8943 9.29571 11.9207 9.32944 11.9628C9.34315 11.9798 9.35983 11.9952 9.37746 12.0081C9.62031 12.1859 9.86335 12.3635 10.1068 12.5406C10.435 12.7793 10.7635 13.0179 11.0923 13.2559C11.2555 13.374 11.4192 13.4915 11.5837 13.6079C11.6623 13.6635 11.7446 13.6703 11.832 13.6239C11.9365 13.5684 12.0435 13.5177 12.1489 13.464C12.6687 13.1989 13.1884 12.9339 13.7079 12.6681C13.8279 12.6067 13.947 12.5432 14.0659 12.4795C14.137 12.4414 14.1756 12.3795 14.1819 12.2983C14.186 12.2454 14.1878 12.1922 14.1878 12.1392C14.1881 10.2116 14.188 8.28408 14.1881 6.33973ZM2.70888 10.3961C2.44968 10.6495 2.18909 10.9014 1.93243 11.1575C1.8805 11.2093 1.83274 11.2713 1.80121 11.3375C1.60433 11.7513 1.94684 12.1153 2.27385 12.0899C2.42025 12.0785 2.54284 12.0235 2.64729 11.9192C2.88624 11.6808 3.12608 11.4433 3.36662 11.2065C3.59731 10.9795 3.8296 10.7541 4.06058 10.5273C4.1093 10.4795 4.15537 10.4289 4.20972 10.3722C3.96779 10.1214 3.73079 9.87573 3.49166 9.62785C3.47278 9.64561 3.45864 9.6584 3.44505 9.67177C3.2025 9.9105 2.96002 10.1493 2.70888 10.3961ZM11.7391 10.0329C11.7391 9.81957 11.7391 9.60621 11.7391 9.39418C11.451 9.68216 11.1679 9.96517 10.878 10.255C10.9751 10.3258 11.068 10.3941 11.1615 10.4616C11.2577 10.531 11.3536 10.601 11.4512 10.6684C11.5444 10.7328 11.631 10.8079 11.7391 10.8709C11.7391 10.5864 11.7391 10.318 11.7391 10.0329Z" fill="white"/>
</svg>
